<svg id="visual" viewBox="0 0 900 450" width="900" height="450" xmlns="http://www.w3.org/2000/svg" xmlns:xlink="http://www.w3.org/1999/xlink" version="1.1"><path d="M0 380L13.7 378.5C27.3 377 54.7 374 82 373C109.3 372 136.7 373 163.8 375.7C191 378.3 218 382.7 245.2 381.3C272.3 380 299.7 373 327 370.8C354.3 368.7 381.7 371.3 409 373.7C436.3 376 463.7 378 491 376.3C518.3 374.7 545.7 369.3 573 369C600.3 368.7 627.7 373.3 654.8 377C682 380.7 709 383.3 736.2 384.2C763.3 385 790.7 384 818 380.8C845.3 377.7 872.7 372.3 886.3 369.7L900 367L900 451L886.3 451C872.7 451 845.3 451 818 451C790.7 451 763.3 451 736.2 451C709 451 682 451 654.8 451C627.7 451 600.3 451 573 451C545.7 451 518.3 451 491 451C463.7 451 436.3 451 409 451C381.7 451 354.3 451 327 451C299.7 451 272.3 451 245.2 451C218 451 191 451 163.8 451C136.7 451 109.3 451 82 451C54.7 451 27.3 451 13.7 451L0 451Z" fill="#579aca"></path><path d="M0 411L13.7 407.7C27.3 404.3 54.7 397.7 82 392.5C109.3 387.3 136.7 383.7 163.8 384.8C191 386 218 392 245.2 396.8C272.3 401.7 299.7 405.3 327 402.3C354.3 399.3 381.7 389.7 409 389.2C436.3 388.7 463.7 397.3 491 401.5C518.3 405.7 545.7 405.3 573 405.7C600.3 406 627.7 407 654.8 403.2C682 399.3 709 390.7 736.2 390.3C763.3 390 790.7 398 818 397.7C845.3 397.3 872.7 388.7 886.3 384.3L900 380L900 451L886.3 451C872.7 451 845.3 451 818 451C790.7 451 763.3 451 736.2 451C709 451 682 451 654.8 451C627.7 451 600.3 451 573 451C545.7 451 518.3 451 491 451C463.7 451 436.3 451 409 451C381.7 451 354.3 451 327 451C299.7 451 272.3 451 245.2 451C218 451 191 451 163.8 451C136.7 451 109.3 451 82 451C54.7 451 27.3 451 13.7 451L0 451Z" fill="#7dabd4"></path><path d="M0 424L13.7 422.5C27.3 421 54.7 418 82 413.8C109.3 409.7 136.7 404.3 163.8 401.7C191 399 218 399 245.2 398.8C272.3 398.7 299.7 398.3 327 403C354.3 407.7 381.7 417.3 409 421C436.3 424.7 463.7 422.3 491 421.3C518.3 420.3 545.7 420.7 573 420.7C600.3 420.7 627.7 420.3 654.8 420.3C682 420.3 709 420.7 736.2 420.3C763.3 420 790.7 419 818 419.7C845.3 420.3 872.7 422.7 886.3 423.8L900 425L900 451L886.3 451C872.7 451 845.3 451 818 451C790.7 451 763.3 451 736.2 451C709 451 682 451 654.8 451C627.7 451 600.3 451 573 451C545.7 451 518.3 451 491 451C463.7 451 436.3 451 409 451C381.7 451 354.3 451 327 451C299.7 451 272.3 451 245.2 451C218 451 191 451 163.8 451C136.7 451 109.3 451 82 451C54.7 451 27.3 451 13.7 451L0 451Z" fill="#9ebdde"></path><path d="M0 435L13.7 433.7C27.3 432.3 54.7 429.7 82 431C109.3 432.3 136.7 437.7 163.8 435.8C191 434 218 425 245.2 423.2C272.3 421.3 299.7 426.7 327 431.7C354.3 436.7 381.7 441.3 409 441.3C436.3 441.3 463.7 436.7 491 436.2C518.3 435.7 545.7 439.3 573 438.7C600.3 438 627.7 433 654.8 428.5C682 424 709 420 736.2 418.8C763.3 417.7 790.7 419.3 818 421.3C845.3 423.3 872.7 425.7 886.3 426.8L900 428L900 451L886.3 451C872.7 451 845.3 451 818 451C790.7 451 763.3 451 736.2 451C709 451 682 451 654.8 451C627.7 451 600.3 451 573 451C545.7 451 518.3 451 491 451C463.7 451 436.3 451 409 451C381.7 451 354.3 451 327 451C299.7 451 272.3 451 245.2 451C218 451 191 451 163.8 451C136.7 451 109.3 451 82 451C54.7 451 27.3 451 13.7 451L0 451Z" fill="#bdd0e7"></path></svg>