<svg id="visual" viewBox="0 0 900 450" width="900" height="450" xmlns="http://www.w3.org/2000/svg" xmlns:xlink="http://www.w3.org/1999/xlink" version="1.1"><path d="M0 68L13.7 69.5C27.3 71 54.7 74 82 75C109.3 76 136.7 75 163.8 72.3C191 69.7 218 65.3 245.2 66.7C272.3 68 299.7 75 327 77.2C354.3 79.3 381.7 76.7 409 74.3C436.3 72 463.7 70 491 71.7C518.3 73.3 545.7 78.7 573 79C600.3 79.3 627.7 74.7 654.8 71C682 67.3 709 64.7 736.2 63.8C763.3 63 790.7 64 818 67.2C845.3 70.3 872.7 75.7 886.3 78.3L900 81L900 0L886.3 0C872.7 0 845.3 0 818 0C790.7 0 763.3 0 736.2 0C709 0 682 0 654.8 0C627.7 0 600.3 0 573 0C545.7 0 518.3 0 491 0C463.7 0 436.3 0 409 0C381.7 0 354.3 0 327 0C299.7 0 272.3 0 245.2 0C218 0 191 0 163.8 0C136.7 0 109.3 0 82 0C54.7 0 27.3 0 13.7 0L0 0Z" fill="#579aca"></path><path d="M0 37L13.7 40.3C27.3 43.7 54.7 50.3 82 55.5C109.3 60.7 136.7 64.3 163.8 63.2C191 62 218 56 245.2 51.2C272.3 46.3 299.7 42.7 327 45.7C354.3 48.7 381.7 58.3 409 58.8C436.3 59.3 463.7 50.7 491 46.5C518.3 42.3 545.7 42.7 573 42.3C600.3 42 627.7 41 654.8 44.8C682 48.7 709 57.3 736.2 57.7C763.3 58 790.7 50 818 50.3C845.3 50.7 872.7 59.3 886.3 63.7L900 68L900 0L886.3 0C872.7 0 845.3 0 818 0C790.7 0 763.3 0 736.2 0C709 0 682 0 654.8 0C627.7 0 600.3 0 573 0C545.7 0 518.3 0 491 0C463.7 0 436.3 0 409 0C381.7 0 354.3 0 327 0C299.7 0 272.3 0 245.2 0C218 0 191 0 163.8 0C136.7 0 109.3 0 82 0C54.7 0 27.3 0 13.7 0L0 0Z" fill="#7dabd4"></path><path d="M0 24L13.7 25.5C27.3 27 54.7 30 82 34.2C109.3 38.3 136.7 43.7 163.8 46.3C191 49 218 49 245.2 49.2C272.3 49.3 299.7 49.7 327 45C354.3 40.3 381.7 30.7 409 27C436.3 23.3 463.7 25.7 491 26.7C518.3 27.7 545.7 27.3 573 27.3C600.3 27.3 627.7 27.7 654.8 27.7C682 27.7 709 27.3 736.2 27.7C763.3 28 790.7 29 818 28.3C845.3 27.7 872.7 25.3 886.3 24.2L900 23L900 0L886.3 0C872.7 0 845.3 0 818 0C790.7 0 763.3 0 736.2 0C709 0 682 0 654.8 0C627.7 0 600.3 0 573 0C545.7 0 518.3 0 491 0C463.7 0 436.3 0 409 0C381.7 0 354.3 0 327 0C299.7 0 272.3 0 245.2 0C218 0 191 0 163.8 0C136.7 0 109.3 0 82 0C54.7 0 27.3 0 13.7 0L0 0Z" fill="#9ebdde"></path><path d="M0 13L13.7 14.3C27.3 15.7 54.7 18.3 82 17C109.3 15.7 136.7 10.3 163.8 12.2C191 14 218 23 245.2 24.8C272.3 26.7 299.7 21.3 327 16.3C354.3 11.3 381.7 6.7 409 6.7C436.3 6.7 463.7 11.3 491 11.8C518.3 12.3 545.7 8.7 573 9.3C600.3 10 627.7 15 654.8 19.5C682 24 709 28 736.2 29.2C763.3 30.3 790.7 28.7 818 26.7C845.3 24.7 872.7 22.3 886.3 21.2L900 20L900 0L886.3 0C872.7 0 845.3 0 818 0C790.7 0 763.3 0 736.2 0C709 0 682 0 654.8 0C627.7 0 600.3 0 573 0C545.7 0 518.3 0 491 0C463.7 0 436.3 0 409 0C381.7 0 354.3 0 327 0C299.7 0 272.3 0 245.2 0C218 0 191 0 163.8 0C136.7 0 109.3 0 82 0C54.7 0 27.3 0 13.7 0L0 0Z" fill="#bdd0e7"></path></svg>