<svg id="visual" viewBox="0 0 900 600" width="900" height="600" xmlns="http://www.w3.org/2000/svg" xmlns:xlink="http://www.w3.org/1999/xlink" version="1.1"><path d="M0 82L12.5 78.8C25 75.7 50 69.3 75 68.3C100 67.3 125 71.7 150 73.2C175 74.7 200 73.3 225 72.5C250 71.7 275 71.3 300 74.3C325 77.3 350 83.7 375 84.8C400 86 425 82 450 79C475 76 500 74 525 73.2C550 72.3 575 72.7 600 77.3C625 82 650 91 675 89.8C700 88.7 725 77.3 750 74.2C775 71 800 76 825 79.2C850 82.3 875 83.7 887.5 84.3L900 85L900 0L887.5 0C875 0 850 0 825 0C800 0 775 0 750 0C725 0 700 0 675 0C650 0 625 0 600 0C575 0 550 0 525 0C500 0 475 0 450 0C425 0 400 0 375 0C350 0 325 0 300 0C275 0 250 0 225 0C200 0 175 0 150 0C125 0 100 0 75 0C50 0 25 0 12.5 0L0 0Z" fill="#d3e5ee"></path><path d="M0 39L12.5 42.5C25 46 50 53 75 53.2C100 53.3 125 46.7 150 48.3C175 50 200 60 225 62.8C250 65.7 275 61.3 300 62.3C325 63.3 350 69.7 375 70.8C400 72 425 68 450 64.8C475 61.7 500 59.3 525 56.5C550 53.7 575 50.3 600 51.5C625 52.7 650 58.3 675 60C700 61.7 725 59.3 750 56.8C775 54.3 800 51.7 825 48.7C850 45.7 875 42.3 887.5 40.7L900 39L900 0L887.5 0C875 0 850 0 825 0C800 0 775 0 750 0C725 0 700 0 675 0C650 0 625 0 600 0C575 0 550 0 525 0C500 0 475 0 450 0C425 0 400 0 375 0C350 0 325 0 300 0C275 0 250 0 225 0C200 0 175 0 150 0C125 0 100 0 75 0C50 0 25 0 12.5 0L0 0Z" fill="#a9cce1"></path><path d="M0 37L12.5 40.3C25 43.7 50 50.3 75 49.2C100 48 125 39 150 37.3C175 35.7 200 41.3 225 45.7C250 50 275 53 300 50.8C325 48.7 350 41.3 375 36.7C400 32 425 30 450 29.7C475 29.3 500 30.7 525 34C550 37.3 575 42.7 600 42.7C625 42.7 650 37.3 675 35.8C700 34.3 725 36.7 750 39.7C775 42.7 800 46.3 825 46.3C850 46.3 875 42.7 887.5 40.8L900 39L900 0L887.5 0C875 0 850 0 825 0C800 0 775 0 750 0C725 0 700 0 675 0C650 0 625 0 600 0C575 0 550 0 525 0C500 0 475 0 450 0C425 0 400 0 375 0C350 0 325 0 300 0C275 0 250 0 225 0C200 0 175 0 150 0C125 0 100 0 75 0C50 0 25 0 12.5 0L0 0Z" fill="#81b3d5"></path><path d="M0 12L12.5 13.8C25 15.7 50 19.3 75 23C100 26.7 125 30.3 150 29.7C175 29 200 24 225 22.7C250 21.3 275 23.7 300 23.3C325 23 350 20 375 17.5C400 15 425 13 450 15.2C475 17.3 500 23.7 525 25.8C550 28 575 26 600 24.3C625 22.7 650 21.3 675 20.5C700 19.7 725 19.3 750 21.8C775 24.3 800 29.7 825 28.5C850 27.3 875 19.7 887.5 15.8L900 12L900 0L887.5 0C875 0 850 0 825 0C800 0 775 0 750 0C725 0 700 0 675 0C650 0 625 0 600 0C575 0 550 0 525 0C500 0 475 0 450 0C425 0 400 0 375 0C350 0 325 0 300 0C275 0 250 0 225 0C200 0 175 0 150 0C125 0 100 0 75 0C50 0 25 0 12.5 0L0 0Z" fill="#579aca"></path></svg>