<svg id="visual" viewBox="0 0 1920 1080" width="1920" height="1080" xmlns="http://www.w3.org/2000/svg" xmlns:xlink="http://www.w3.org/1999/xlink" version="1.1"><path d="M0 966L29.2 966.8C58.3 967.7 116.7 969.3 174.8 955.5C233 941.7 291 912.3 349.2 899.2C407.3 886 465.7 889 523.8 902.8C582 916.7 640 941.3 698.2 935.7C756.3 930 814.7 894 872.8 872.7C931 851.3 989 844.7 1047.2 867.2C1105.3 889.7 1163.7 941.3 1221.8 961.8C1280 982.3 1338 971.7 1396.2 966.8C1454.3 962 1512.7 963 1570.8 951.3C1629 939.7 1687 915.3 1745.2 911.5C1803.3 907.7 1861.7 924.3 1890.8 932.7L1920 941L1920 1081L1890.8 1081C1861.7 1081 1803.3 1081 1745.2 1081C1687 1081 1629 1081 1570.8 1081C1512.7 1081 1454.3 1081 1396.2 1081C1338 1081 1280 1081 1221.8 1081C1163.7 1081 1105.3 1081 1047.2 1081C989 1081 931 1081 872.8 1081C814.7 1081 756.3 1081 698.2 1081C640 1081 582 1081 523.8 1081C465.7 1081 407.3 1081 349.2 1081C291 1081 233 1081 174.8 1081C116.7 1081 58.3 1081 29.2 1081L0 1081Z" fill="#b8c7de" stroke-linecap="round" stroke-linejoin="miter"></path></svg>